<svg width="65" height="63" viewBox="0 0 65 63" fill="none" xmlns="http://www.w3.org/2000/svg">
<path d="M12.3286 0.5H52.7249C58.7272 0.5 63.5913 5.35561 63.5913 11.3432V51.6568C63.5913 57.6444 58.7272 62.5 52.7249 62.5H12.3286C6.32625 62.5 1.46216 57.6444 1.46216 51.6568V11.3432C1.46216 5.35561 6.32625 0.5 12.3286 0.5Z" fill="#FEFEFF" stroke="#EBEBEB"/>
<path d="M49.4383 39.1462C47.5186 38.1564 45.9923 36.5457 45.109 34.5777C44.2258 32.6096 44.038 30.4007 44.5762 28.3123C45.1556 25.9796 46.4903 24.1606 48.3888 22.7174C48.6584 22.5128 49.1731 22.375 48.752 21.8279C46.5037 18.9638 43.4666 17.8252 39.9281 17.8786C38.2569 17.9031 36.6748 18.4479 35.1885 19.1595C33.348 20.049 31.6054 20 29.7671 19.135C28.2519 18.419 26.6475 17.8608 24.9184 17.9876C21.4178 18.2433 18.6391 19.8422 16.6382 22.713C14.3876 25.9418 13.9798 29.6221 14.3943 33.3735C15.0382 39.1751 17.3846 44.2696 21.2128 48.7059C23.499 51.3544 25.7919 51.9348 29.0452 50.4227C31.7481 49.1663 34.4086 49.1373 37.0981 50.4227C38.1184 50.9501 39.2538 51.2167 40.4027 51.1987C41.7396 51.1987 43.0543 50.6984 44.2241 49.482C46.7243 46.8859 48.6642 43.8056 49.9241 40.4315C50.1692 39.7978 50.1001 39.4909 49.4383 39.1462Z" fill="#A7B1BA"/>
<path d="M33.5041 17.3672C35.9552 16.9224 37.8492 15.5882 39.2842 13.5869C40.4089 11.9858 41.043 10.0929 41.1092 8.13876C41.127 7.79853 41.2852 7.2137 40.4541 7.31155C36.1936 7.80743 32.2094 12.0881 32.156 16.2664C32.1426 17.5095 32.2562 17.5984 33.5041 17.3672Z" fill="#A7B1BA"/>
</svg>
