<svg width="64" height="63" viewBox="0 0 64 63" fill="none" xmlns="http://www.w3.org/2000/svg">
<path d="M11.5161 0.5H51.9124C57.9147 0.5 62.7788 5.35561 62.7788 11.3432V51.6568C62.7788 57.6444 57.9147 62.5 51.9124 62.5H11.5161C5.51375 62.5 0.649658 57.6444 0.649658 51.6568V11.3432C0.649658 5.35561 5.51375 0.5 11.5161 0.5Z" fill="#FEFEFF" stroke="#EBEBEB"/>
<path d="M34.1619 44.6722C34.1619 42.5463 34.1819 40.4182 34.1507 38.2924C34.1507 37.7098 34.3067 37.5141 34.9017 37.5385C36.0158 37.583 37.1299 37.5252 38.2329 37.563C38.7699 37.5808 38.9705 37.3829 39.0418 36.8692C39.2446 35.3882 39.4674 33.9072 39.7325 32.4373C39.8506 31.7702 39.6389 31.6146 39.0039 31.6346C37.6246 31.6768 36.2409 31.6235 34.8616 31.659C34.309 31.6746 34.1284 31.5145 34.1507 30.9564C34.1953 29.8445 34.1507 28.7326 34.1775 27.6319C34.2287 25.9841 35.0977 25.0324 36.7065 24.7589C37.5978 24.6054 38.5025 24.6588 39.4005 24.6655C39.8841 24.6655 40.1047 24.5565 40.0913 24.0184C40.0557 22.762 40.0779 21.5034 40.0802 20.2381C40.0802 19.9267 40.0802 19.6465 39.6523 19.5932C37.4798 19.3174 35.3094 18.9661 33.128 19.5242C30.1577 20.287 28.3104 22.3884 27.8692 25.4349C27.613 27.2272 27.74 29.0239 27.7422 30.8163C27.7422 31.4945 27.5573 31.6857 26.8866 31.6568C25.6588 31.6012 24.4355 31.6568 23.1943 31.6324C22.6929 31.6212 22.5035 31.7769 22.5124 32.2995C22.537 33.8272 22.5436 35.3548 22.5124 36.8803C22.4991 37.474 22.7643 37.5697 23.2723 37.5585C24.4711 37.5319 25.6744 37.5852 26.8732 37.5363C27.5127 37.5119 27.7511 37.6475 27.7444 38.3569C27.7088 42.5493 27.7088 46.7417 27.7444 50.9342C27.7444 51.648 27.5885 51.7525 26.8933 51.6013C22.1933 50.6322 17.9831 48.0483 14.996 44.2998C12.0089 40.5512 10.4343 35.8756 10.5466 31.0875C10.7494 21.6746 17.715 13.4224 27.194 11.6523C37.56 9.71544 47.7565 15.9841 50.5909 26.0308C52.002 30.9354 51.5147 36.1901 49.2257 40.753C46.9367 45.3159 43.0131 48.8537 38.2329 50.6651C37.1338 51.0625 36.0089 51.3849 34.866 51.6302C34.2466 51.7747 34.1641 51.5813 34.1685 51.0387C34.1752 48.924 34.1619 46.7981 34.1619 44.6722Z" fill="#436AB3"/>
</svg>
