<svg width="64" height="63" viewBox="0 0 64 63" fill="none" xmlns="http://www.w3.org/2000/svg">
<path d="M11.3664 0.5H51.7628C57.7651 0.5 62.6292 5.35561 62.6292 11.3432V51.6568C62.6292 57.6444 57.7651 62.5 51.7628 62.5H11.3664C5.36409 62.5 0.5 57.6444 0.5 51.6568V11.3432C0.5 5.35561 5.36409 0.5 11.3664 0.5Z" fill="#FEFEFF" stroke="#EBEBEB"/>
<path d="M41.0983 40.3248C42.1772 39.1568 43.0646 37.8263 43.7277 36.3822C43.9795 35.804 43.926 35.6083 43.2308 35.6128C39.8705 35.6417 36.5103 35.6017 33.1501 35.6439C32.3902 35.6439 32.2008 35.4215 32.2164 34.6877C32.2655 32.504 32.2566 30.3159 32.2164 28.1322C32.2053 27.4918 32.4148 27.3361 33.032 27.3383C39.3024 27.3576 45.5734 27.3576 51.8453 27.3383C52.2909 27.3383 52.6296 27.3383 52.7188 27.9343C53.7586 34.8041 51.9158 40.7851 47.1904 45.8774C47.1029 45.9588 47.009 46.0332 46.9097 46.0998L41.0983 40.3248Z" fill="#5274B8"/>
<path d="M23.3612 22.6107C21.924 24.2762 20.6873 26.0663 20.1637 28.2367C19.0837 32.6203 20.0337 36.5155 23.0136 39.9223C23.1317 40.0557 23.2365 40.198 23.3523 40.3359L17.5098 46.1175C14.4643 43.2257 12.4493 39.4196 11.772 35.2792C10.62 28.5302 12.3313 22.5395 16.9282 17.4116C17.1174 17.2233 17.3192 17.048 17.5321 16.8868L23.3612 22.6107Z" fill="#FDBD16"/>
<path d="M17.5098 46.1064L23.3523 40.3248C25.8992 42.6597 28.8472 43.9761 32.3612 43.9316C35.4808 43.8938 38.1993 42.8198 40.5523 40.7806C40.7328 40.625 40.9178 40.476 41.1005 40.3248L46.9163 46.1064C44.4441 48.7417 41.2627 50.6094 37.7536 51.4856C30.2733 53.4269 23.6665 51.6924 17.922 46.5756C17.7747 46.4281 17.637 46.2714 17.5098 46.1064Z" fill="#12B257"/>
<path d="M23.3611 22.6107L17.532 16.8868C20.5338 13.7364 24.5064 11.6798 28.816 11.0451C35.4005 9.99998 41.2074 11.7767 46.2299 16.1597C46.7714 16.6311 46.8984 16.8935 46.299 17.4494C44.6656 18.9904 43.1036 20.6093 41.5193 22.2015C41.2519 22.4683 41.0737 22.684 40.6548 22.3038C35.8595 17.8764 28.2901 17.9386 23.5171 22.5261C23.4681 22.5595 23.4159 22.5878 23.3611 22.6107V22.6107Z" fill="#EE2925"/>
</svg>
