<svg width="181" height="123" viewBox="0 0 181 123" fill="none" xmlns="http://www.w3.org/2000/svg">
<path d="M17.8915 74.1139C19.9225 73.5061 21.5023 71.6464 21.5023 68.7799C21.5023 63.7271 17.404 61.6134 10.0922 61.6134H0V86.8683H11.374C18.406 86.8683 23.1091 85.7616 23.1091 79.8108C23.0639 76.3727 20.2836 74.6128 17.8915 74.1139ZM3.26776 63.9538H9.96578C14.3529 63.9538 18.2074 64.4618 18.2074 68.8978C18.2074 72.3086 15.7792 73.1977 10.8956 73.1977H3.26776V63.9538ZM11.392 84.4916H3.26776V75.2841H12.1774C17.5304 75.2841 19.8052 77.0349 19.8052 79.8198C19.7781 84.4372 15.9055 84.5098 11.392 84.5098V84.4916ZM41.1811 87.2856C49.9192 87.2856 55.7326 83.3396 55.7326 74.2772C55.7326 65.2148 49.847 61.1598 41.1811 61.1598C32.804 61.1598 26.9185 65.3508 26.9185 74.2772C26.9185 83.2035 32.6235 87.3038 41.1811 87.3038V87.2856ZM41.1811 63.6C47.0667 63.6 52.4468 66.5392 52.4468 74.3134C52.4468 82.0877 47.1389 84.8454 41.1811 84.8454C35.2233 84.8454 30.2675 82.124 30.2675 74.2772C30.1953 66.5574 35.0788 63.6182 41.1089 63.6182L41.1811 63.6ZM74.0212 61.1598C65.6442 61.1598 59.7586 65.3508 59.7586 74.2772C59.7586 83.2035 65.4998 87.2856 74.0212 87.2856C82.7594 87.2856 88.5727 83.3396 88.5727 74.2772C88.5727 65.2148 82.6149 61.178 73.949 61.178L74.0212 61.1598ZM74.0212 84.8454C68.0364 84.8454 63.1167 82.124 63.1167 74.2772C63.1167 66.5392 68.0002 63.6 74.0212 63.6C79.9068 63.6 85.2959 66.5392 85.2959 74.3134C85.2959 82.0877 79.8707 84.8636 73.9129 84.8636L74.0212 84.8454ZM103.368 76.5722H97.4192V86.8502H94.1695V61.5952H97.4192V74.2953H102.763L114.282 61.6497H117.956L105.616 74.9031L118.524 86.8683H114.3L103.368 76.5722ZM148.196 61.051H153.612V86.8593H148.196V69.6235L138.393 81.9788H137.716L127.831 69.6235V86.8593H122.415V61.051H127.831L138.032 73.8145L148.196 61.051ZM165.347 65.3146V71.592H176.514V75.3839H165.239V82.5866H181V86.8502H159.335V61.051H181V65.3146H165.347ZM32.1902 120.342H34.3747V123H32.1902V120.342ZM36.0177 120.342H38.2022V123H36.0177V120.342ZM81.2609 97.0738H75.4836V108.232H49.5762V97.0738H43.7267C42.9563 97.063 42.1919 97.2113 41.4808 97.5093C40.7696 97.8073 40.1269 98.2488 39.5923 98.8064C39.0434 99.3434 38.609 99.9871 38.3157 100.698C38.0224 101.409 37.8763 102.173 37.8862 102.943V115.97H34.0859C33.5309 115.98 32.9798 115.875 32.4672 115.661C31.9545 115.447 31.4914 115.129 31.107 114.727C30.7054 114.341 30.3875 113.876 30.1732 113.361C29.9588 112.846 29.8526 112.292 29.8613 111.733V105.683H27.6406V111.76C27.6297 112.615 27.7903 113.462 28.1129 114.252C28.4356 115.043 28.9135 115.759 29.5182 116.36C30.1148 116.969 30.8277 117.451 31.6141 117.777C32.4005 118.103 33.2443 118.265 34.0949 118.256H40.143V102.961C40.1358 102.486 40.2258 102.015 40.4075 101.576C40.5892 101.138 40.8586 100.742 41.1991 100.412C41.5276 100.071 41.9221 99.8005 42.3583 99.618C42.7945 99.4355 43.2633 99.3445 43.7357 99.3507H47.3465V110.5H86.8125V102.752C86.823 102.009 86.6819 101.271 86.3977 100.585C86.1136 99.8984 85.6926 99.2777 85.1605 98.761C84.643 98.2202 84.0199 97.7928 83.3301 97.5056C82.6404 97.2183 81.899 97.0775 81.1526 97.0919L81.2609 97.0738ZM84.6641 108.232H77.8036V99.3326H81.2609C81.6987 99.3319 82.1322 99.4199 82.5355 99.5914C82.9387 99.7628 83.3035 100.014 83.6079 100.33C83.9284 100.643 84.1818 101.019 84.3526 101.434C84.5233 101.849 84.6078 102.294 84.6009 102.743L84.6641 108.232ZM106.807 92.0754H108.983V110.572H96.2457C95.4502 110.576 94.6623 110.417 93.9298 110.105C93.1974 109.793 92.5357 109.335 91.9849 108.758C91.4075 108.207 90.9492 107.543 90.6385 106.806C90.3279 106.069 90.1717 105.276 90.1795 104.476V98.634H92.346V104.476C92.3386 104.984 92.4358 105.488 92.6316 105.956C92.8273 106.425 93.1173 106.847 93.4834 107.198C93.8325 107.584 94.2593 107.891 94.7355 108.099C95.2117 108.307 95.7265 108.411 96.2457 108.404H106.807V92.0754ZM95.9207 100.24V100.539H97.8344V101.845H94.6208V100.539V100.24C94.6177 100.031 94.6569 99.8231 94.736 99.6297C94.8151 99.4363 94.9326 99.2612 95.0812 99.1148C95.2299 98.9645 95.4073 98.8461 95.6028 98.7666C95.7983 98.687 96.0077 98.6481 96.2186 98.6522H97.8976V99.9494H96.2457C96.02 99.9403 95.9207 100.04 95.9207 100.24ZM151.094 108.259H126.766H122.054V97.1191H116.051C115.349 97.1091 114.652 97.2432 114.003 97.513C113.355 97.7828 112.767 98.1828 112.278 98.6885C111.769 99.1815 111.367 99.7739 111.095 100.429C110.824 101.084 110.688 101.789 110.698 102.498V110.527H119.815V112.241C119.819 112.735 119.723 113.225 119.532 113.681C119.341 114.136 119.06 114.548 118.705 114.89C118.365 115.236 117.96 115.509 117.514 115.695C117.067 115.88 116.588 115.974 116.105 115.97H112.837V118.228H116.105C116.897 118.233 117.681 118.074 118.409 117.762C119.137 117.45 119.794 116.991 120.339 116.414C120.903 115.861 121.349 115.199 121.65 114.468C121.951 113.736 122.101 112.951 122.09 112.16V110.436H151.094C151.386 110.44 151.677 110.384 151.948 110.274C152.219 110.163 152.466 109.999 152.673 109.792C152.883 109.583 153.05 109.335 153.163 109.06C153.276 108.786 153.334 108.492 153.332 108.195V97.0375H151.094V108.259ZM119.815 108.259H112.955V102.498C112.947 102.089 113.024 101.682 113.179 101.302C113.334 100.923 113.565 100.58 113.857 100.294C114.142 100.001 114.484 99.7692 114.861 99.6132C115.238 99.4572 115.643 99.3802 116.051 99.387H119.815V108.259ZM149.081 112.94H151.31V115.607H149.081V112.94ZM89.2859 46.5548V13.8975H67.7746V11.4936H113.18V13.8975H91.678V46.5548H89.2859ZM122.307 25.7902H124.699V46.5548H122.307V25.7902ZM110.915 23.5495H115.789C116.644 23.5514 117.491 23.3833 118.281 23.0548C119.071 22.7263 119.789 22.2439 120.393 21.6355C121.001 21.0281 121.483 20.3057 121.811 19.51C122.14 18.7144 122.308 17.8613 122.307 16.9999V8.30947C122.303 6.46553 122.868 4.66572 123.922 3.15688C124.221 2.73452 124.553 2.33711 124.915 1.96852C125.632 1.24915 126.466 0.657142 127.38 0.217706L127.768 0.0272133L128.797 2.20436L128.418 2.3858C127.748 2.70933 127.137 3.14489 126.612 3.67393C126.005 4.28133 125.523 5.00371 125.194 5.79934C124.866 6.59496 124.697 7.44809 124.699 8.30947V16.9999C124.703 18.8412 124.139 20.6385 123.083 22.1435C122.787 22.5676 122.454 22.9652 122.09 23.3318C121.725 23.7009 121.33 24.0378 120.907 24.3387C119.407 25.3932 117.62 25.9599 115.789 25.9625H108.161C107.305 25.9599 106.456 26.1277 105.665 26.4562C104.873 26.7847 104.154 27.2675 103.549 27.8766C102.34 29.099 101.661 30.7525 101.662 32.4758V46.5185H99.2697V32.4758C99.2665 30.6347 99.831 28.8378 100.886 27.3323C101.182 26.9082 101.514 26.5106 101.879 26.144C102.241 25.7747 102.637 25.4406 103.061 25.1461C104.559 24.0847 106.347 23.5144 108.179 23.5133H110.942L110.915 23.5495ZM56.2561 25.7902H58.6483V46.5548H56.2561V25.7902ZM52.5461 2.3858L52.1579 2.20436L53.0064 0.390066L53.187 0L53.5751 0.190493C54.4892 0.629928 55.3224 1.22194 56.0395 1.94131C56.4018 2.3099 56.7339 2.70731 57.0325 3.12967C58.0872 4.63851 58.6516 6.43832 58.6483 8.28225V16.9727C58.6504 18.7115 59.3386 20.3786 60.562 21.6082C61.1672 22.2174 61.8863 22.7001 62.678 23.0286C63.4697 23.3571 64.3183 23.5249 65.1748 23.5223H72.7755C74.6087 23.5211 76.397 24.0916 77.8938 25.1552C78.3201 25.4474 78.7162 25.7816 79.0764 26.153C79.4459 26.5149 79.7785 26.913 80.0693 27.3414C81.1266 28.8461 81.6942 30.6429 81.6942 32.4849V46.5275H79.293V32.4758C79.2943 30.7381 78.6092 29.0709 77.3883 27.8403C76.7828 27.2316 76.0636 26.7491 75.272 26.4206C74.4804 26.0922 73.632 25.9241 72.7755 25.9262H65.1477C63.3161 25.9265 61.5289 25.3596 60.0294 24.3025C59.6051 24.0043 59.2092 23.6672 58.8469 23.2955C58.477 22.9314 58.1416 22.5336 57.8449 22.1072C56.793 20.6003 56.2288 18.8043 56.2291 16.9637V8.27317C56.2317 7.41243 56.0647 6.55969 55.7378 5.7641C55.4109 4.9685 54.9305 4.24581 54.3244 3.63767C53.806 3.11306 53.2052 2.67783 52.5461 2.34951V2.3858Z" fill="#F15E22"/>
</svg>
