<svg width="66" height="66" viewBox="0 0 66 66" fill="none" xmlns="http://www.w3.org/2000/svg">
<rect width="66" height="66" rx="20" fill="#EBEBEB"/>
<path d="M51.8594 42.0671C51.8572 42.7732 51.5858 43.4497 51.1042 43.9491C50.6227 44.4486 49.9701 44.7305 49.2888 44.7333H17.1662C16.4968 44.7136 15.8612 44.4242 15.3945 43.9265C14.9277 43.4289 14.6666 42.7622 14.6666 42.0682C14.6666 41.3742 14.9277 40.7075 15.3945 40.2098C15.8612 39.7122 16.4968 39.4227 17.1662 39.403H49.2888C49.97 39.4047 50.623 39.686 51.1047 40.1852C51.5864 40.6844 51.8578 41.3611 51.8594 42.0671V42.0671Z" stroke="#F15E22" stroke-width="2" stroke-miterlimit="10"/>
<path d="M31.6855 26.5632V22.8257C31.7001 22.3992 31.8769 21.996 32.1773 21.7041C32.4777 21.4121 32.8773 21.2552 33.289 21.2674C33.701 21.2546 34.1011 21.4113 34.402 21.7033C34.7029 21.9953 34.8799 22.3988 34.8946 22.8257V26.5697" stroke="#F15E22" stroke-width="2" stroke-miterlimit="10"/>
<path d="M18.1766 39.403C18.8414 35.7703 20.7088 32.4919 23.4566 30.1335C26.2044 27.7751 29.6603 26.4846 33.2281 26.4846C36.7959 26.4846 40.2519 27.7751 42.9997 30.1335C45.7476 32.4919 47.6149 35.7703 48.2797 39.403" stroke="#F15E22" stroke-width="2" stroke-miterlimit="10"/>
</svg>
