<svg width="26" height="25" viewBox="0 0 26 25" fill="none" xmlns="http://www.w3.org/2000/svg">
<path d="M16.0411 22.6486V16.6485C16.0411 16.3833 15.93 16.1289 15.7322 15.9414C15.5344 15.7538 15.2661 15.6485 14.9863 15.6485H10.7669C10.4872 15.6485 10.2189 15.7538 10.0211 15.9414C9.82324 16.1289 9.71211 16.3833 9.71211 16.6485V22.6486C9.71211 22.9138 9.60099 23.1681 9.4032 23.3557C9.20541 23.5432 8.93714 23.6486 8.6574 23.6486L2.32914 23.6494C2.19061 23.6494 2.05342 23.6236 1.92543 23.5733C1.79744 23.5231 1.68114 23.4494 1.58317 23.3565C1.48521 23.2637 1.4075 23.1534 1.35448 23.0321C1.30146 22.9108 1.27417 22.7807 1.27417 22.6494V11.0918C1.27417 10.9525 1.30488 10.8147 1.36433 10.6873C1.42377 10.5599 1.51065 10.4457 1.61938 10.352L12.167 1.26012C12.3612 1.09275 12.6142 1.00001 12.8766 1C13.1391 0.999992 13.3921 1.09272 13.5862 1.26007L24.1354 10.352C24.2441 10.4457 24.331 10.5599 24.3905 10.6873C24.4499 10.8148 24.4806 10.9526 24.4806 11.0919V22.6494C24.4806 22.7807 24.4533 22.9108 24.4003 23.0321C24.3473 23.1534 24.2696 23.2637 24.1716 23.3566C24.0737 23.4494 23.9574 23.5231 23.8294 23.5733C23.7014 23.6236 23.5642 23.6494 23.4256 23.6494L17.0958 23.6486C16.8161 23.6486 16.5478 23.5432 16.35 23.3557C16.1523 23.1681 16.0411 22.9138 16.0411 22.6486V22.6486Z" stroke="black" stroke-width="1.5" stroke-linecap="round" stroke-linejoin="round"/>
</svg>
