<svg width="31" height="20" viewBox="0 0 31 20" fill="none" xmlns="http://www.w3.org/2000/svg">
<path d="M29.5286 16.9549C29.5269 17.4964 29.3187 18.0154 28.9493 18.3985C28.5799 18.7816 28.0793 18.9978 27.5568 19H2.91729C2.40383 18.9849 1.91633 18.7629 1.55832 18.3811C1.2003 17.9994 1 17.488 1 16.9557C1 16.4234 1.2003 15.912 1.55832 15.5303C1.91633 15.1485 2.40383 14.9265 2.91729 14.9114H27.5568C28.0793 14.9127 28.5801 15.1284 28.9496 15.5114C29.3192 15.8943 29.5273 16.4133 29.5286 16.9549V16.9549Z" stroke="#F15E22" stroke-miterlimit="10"/>
<path d="M14.0543 5.0627V2.19589C14.0655 1.86873 14.2011 1.55945 14.4315 1.33552C14.662 1.11159 14.9685 0.991184 15.2842 1.00056C15.6003 0.990739 15.9072 1.11095 16.138 1.33493C16.3687 1.55891 16.5046 1.86844 16.5158 2.19589V5.06767" stroke="#F15E22" stroke-width="0.81" stroke-miterlimit="10"/>
<path d="M3.69243 14.9114C4.20235 12.1249 5.63472 9.61028 7.74242 7.80128C9.85013 5.99228 12.501 5.0024 15.2376 5.0024C17.9743 5.0024 20.6252 5.99228 22.7329 7.80128C24.8406 9.61028 26.2729 12.1249 26.7829 14.9114" stroke="#F15E22" stroke-miterlimit="10"/>
</svg>
