<svg width="53" height="52" viewBox="0 0 53 52" fill="none" xmlns="http://www.w3.org/2000/svg">
<ellipse cx="26.5" cy="26" rx="26.5" ry="26" fill="#EBEBEB" fill-opacity="0.5"/>
<ellipse cx="26.5" cy="26" rx="22.5" ry="22" fill="#EBEBEB"/>
<path d="M19.3525 38L18.3213 34.6396H18.2949C18.2988 34.7197 18.3047 34.8408 18.3125 35.0029C18.3223 35.1631 18.3311 35.334 18.3389 35.5156C18.3467 35.6973 18.3506 35.8613 18.3506 36.0078V38H17.5391V33.7168H18.7754L19.7891 36.9922H19.8066L20.8818 33.7168H22.1182V38H21.2715V35.9727C21.2715 35.8379 21.2734 35.6826 21.2773 35.5068C21.2832 35.3311 21.29 35.1641 21.2979 35.0059C21.3057 34.8457 21.3115 34.7256 21.3154 34.6455H21.2891L20.1846 38H19.3525ZM24.7995 34.6631C25.1022 34.6631 25.363 34.7217 25.5817 34.8389C25.8005 34.9541 25.9694 35.1221 26.0886 35.3428C26.2077 35.5635 26.2673 35.833 26.2673 36.1514V36.585H24.155C24.1647 36.8369 24.2399 37.0352 24.3805 37.1797C24.5231 37.3223 24.7204 37.3936 24.9723 37.3936C25.1813 37.3936 25.3727 37.3721 25.5466 37.3291C25.7204 37.2861 25.8991 37.2217 26.0827 37.1357V37.8271C25.9206 37.9072 25.7507 37.9658 25.5729 38.0029C25.3971 38.04 25.1833 38.0586 24.9313 38.0586C24.6032 38.0586 24.3122 37.998 24.0583 37.877C23.8063 37.7559 23.6081 37.5713 23.4636 37.3232C23.321 37.0752 23.2497 36.7627 23.2497 36.3857C23.2497 36.0029 23.3141 35.6846 23.443 35.4307C23.5739 35.1748 23.7555 34.9834 23.988 34.8564C24.2204 34.7275 24.4909 34.6631 24.7995 34.6631ZM24.8054 35.2988C24.6315 35.2988 24.487 35.3545 24.3718 35.4658C24.2585 35.5771 24.193 35.752 24.1755 35.9902H25.4294C25.4274 35.8574 25.403 35.7393 25.3561 35.6357C25.3112 35.5322 25.2429 35.4502 25.1511 35.3896C25.0612 35.3291 24.946 35.2988 24.8054 35.2988ZM29.1742 34.6631C29.5238 34.6631 29.805 34.7588 30.0179 34.9502C30.2308 35.1396 30.3373 35.4443 30.3373 35.8643V38H29.4437V36.0869C29.4437 35.8525 29.4007 35.6758 29.3148 35.5566C29.2308 35.4375 29.098 35.3779 28.9164 35.3779C28.6429 35.3779 28.4564 35.4707 28.3568 35.6562C28.2572 35.8418 28.2074 36.1094 28.2074 36.459V38H27.3138V34.7246H27.9964L28.1166 35.1436H28.1664C28.2367 35.0303 28.3236 34.9385 28.4271 34.8682C28.5326 34.7979 28.6488 34.7461 28.7757 34.7129C28.9046 34.6797 29.0375 34.6631 29.1742 34.6631ZM34.583 34.7246V38H33.8975L33.7774 37.5811H33.7305C33.6602 37.6924 33.5723 37.7832 33.4668 37.8535C33.3614 37.9238 33.2452 37.9756 33.1182 38.0088C32.9913 38.042 32.8594 38.0586 32.7227 38.0586C32.4883 38.0586 32.2842 38.0176 32.1104 37.9355C31.9366 37.8516 31.8008 37.7217 31.7032 37.5459C31.6075 37.3701 31.5596 37.1416 31.5596 36.8604V34.7246H32.4532V36.6377C32.4532 36.8721 32.4952 37.0488 32.5791 37.168C32.6631 37.2871 32.7969 37.3467 32.9805 37.3467C33.1621 37.3467 33.3047 37.3057 33.4082 37.2236C33.5118 37.1396 33.584 37.0176 33.625 36.8574C33.668 36.6953 33.6895 36.498 33.6895 36.2656V34.7246H34.583Z" fill="#F15E22"/>
<path d="M40.5286 27.9549C40.5269 28.4964 40.3187 29.0154 39.9493 29.3985C39.5799 29.7816 39.0793 29.9978 38.5568 30H13.9173C13.4038 29.9849 12.9163 29.7629 12.5583 29.3811C12.2003 28.9994 12 28.488 12 27.9557C12 27.4234 12.2003 26.912 12.5583 26.5303C12.9163 26.1485 13.4038 25.9265 13.9173 25.9114H38.5568C39.0793 25.9127 39.5801 26.1284 39.9496 26.5114C40.3192 26.8943 40.5273 27.4133 40.5286 27.9549V27.9549Z" stroke="#F15E22" stroke-miterlimit="10"/>
<path d="M25.0543 16.0627V13.1959C25.0655 12.8687 25.2011 12.5594 25.4315 12.3355C25.662 12.1116 25.9685 11.9912 26.2842 12.0006C26.6003 11.9907 26.9072 12.111 27.138 12.3349C27.3687 12.5589 27.5046 12.8684 27.5158 13.1959V16.0677" stroke="#F15E22" stroke-width="0.81" stroke-miterlimit="10"/>
<path d="M14.6924 25.9114C15.2024 23.1249 16.6347 20.6103 18.7424 18.8013C20.8501 16.9923 23.501 16.0024 26.2376 16.0024C28.9743 16.0024 31.6252 16.9923 33.7329 18.8013C35.8406 20.6103 37.2729 23.1249 37.7829 25.9114" fill="#F15E22"/>
<path d="M14.6924 25.9114C15.2024 23.1249 16.6347 20.6103 18.7424 18.8013C20.8501 16.9923 23.501 16.0024 26.2376 16.0024C28.9743 16.0024 31.6252 16.9923 33.7329 18.8013C35.8406 20.6103 37.2729 23.1249 37.7829 25.9114" stroke="#F15E22" stroke-miterlimit="10"/>
</svg>
