<svg width="31" height="27" viewBox="0 0 31 27" fill="none" xmlns="http://www.w3.org/2000/svg">
<path d="M26.6353 25.9143H4.28376C3.81395 25.9146 3.34955 25.8121 2.92197 25.614C2.49438 25.4158 2.11358 25.1264 1.8053 24.7655C1.49702 24.4045 1.26846 23.9804 1.13506 23.5217C1.00166 23.0631 0.966544 22.5806 1.03207 22.107L3.56088 3.87435C3.67145 3.0766 4.0614 2.3464 4.65892 1.81822C5.25643 1.29004 6.02127 0.999465 6.81256 1H24.1098C24.9011 0.999465 25.666 1.29004 26.2635 1.81822C26.861 2.3464 27.2509 3.0766 27.3615 3.87435L29.8862 22.107C29.9518 22.5806 29.9168 23.063 29.7835 23.5217C29.6502 23.9803 29.4217 24.4045 29.1135 24.7654C28.8053 25.1264 28.4246 25.4158 27.997 25.614C27.5695 25.8122 27.1051 25.9146 26.6353 25.9143V25.9143Z" stroke="black" stroke-width="1.5" stroke-miterlimit="10"/>
<path d="M27.7775 6.78516H3.14059" stroke="black" stroke-width="1.5" stroke-miterlimit="10"/>
<path d="M20.8014 11.3124H23.1726C23.5976 11.3124 23.9422 11.6632 23.9422 12.0959V14.5102C23.9422 14.9429 23.5976 15.2937 23.1726 15.2937H20.8014C20.3764 15.2937 20.0318 14.9429 20.0318 14.5102V12.0959C20.0318 11.6632 20.3764 11.3124 20.8014 11.3124Z" stroke="black" stroke-width="1.5" stroke-miterlimit="10"/>
<path d="M20.8014 17.4092H23.1726C23.5976 17.4092 23.9422 17.76 23.9422 18.1927V20.607C23.9422 21.0397 23.5976 21.3905 23.1726 21.3905H20.8014C20.3764 21.3905 20.0318 21.0397 20.0318 20.607V18.1927C20.0318 17.76 20.3764 17.4092 20.8014 17.4092Z" stroke="black" stroke-width="1.5" stroke-miterlimit="10"/>
<path d="M14.2731 17.4092H16.6443C17.0693 17.4092 17.4138 17.76 17.4138 18.1927V20.607C17.4138 21.0397 17.0693 21.3905 16.6443 21.3905H14.2731C13.848 21.3905 13.5035 21.0397 13.5035 20.607V18.1927C13.5035 17.76 13.848 17.4092 14.2731 17.4092Z" stroke="black" stroke-width="1.5" stroke-miterlimit="10"/>
</svg>
