<svg width="182" height="165" viewBox="0 0 182 165" fill="none" xmlns="http://www.w3.org/2000/svg">
<path opacity="0.1" d="M26.5672 148.693C-8.85572 128.255 -8.85572 95.1161 26.5672 74.694C61.9901 54.2719 119.424 54.2562 154.859 74.694C190.294 95.1318 190.282 128.271 154.859 148.693C119.436 169.115 61.994 169.135 26.5672 148.693Z" fill="black"/>
<path opacity="0.15" d="M54.918 149.676C70.2901 149.676 82.7517 142.487 82.7517 133.619C82.7517 124.751 70.2901 117.563 54.918 117.563C39.5459 117.563 27.0844 124.751 27.0844 133.619C27.0844 142.487 39.5459 149.676 54.918 149.676Z" fill="#606060"/>
<path opacity="0.15" d="M119.25 126.119C138.55 115.716 149.997 99.503 144.817 89.9052C139.636 80.3074 119.791 80.9596 100.491 91.3619C81.1903 101.764 69.7435 117.977 74.9237 127.575C80.1038 137.173 99.9492 136.521 119.25 126.119Z" fill="#606060"/>
<path d="M138.454 103.319C142.314 98.7222 148.359 95.727 155.157 93.9573C161.872 92.215 163.075 88.0843 158.624 86.7492C153.582 85.2301 147.289 88.0178 143.23 91.8978C136.162 98.6595 135.273 103.824 135.273 103.824L138.454 103.319Z" fill="#DE6300"/>
<path opacity="0.15" d="M138.454 103.319C142.314 98.7222 148.359 95.727 155.157 93.9573C161.872 92.215 163.075 88.0843 158.624 86.7492C153.582 85.2301 147.289 88.0178 143.23 91.8978C136.162 98.6595 135.273 103.824 135.273 103.824L138.454 103.319Z" fill="black"/>
<path d="M136.468 103.041C136.439 103.047 136.41 103.047 136.382 103.041C136.358 103.029 136.338 103.014 136.321 102.994C136.304 102.975 136.29 102.953 136.282 102.928C136.274 102.904 136.27 102.878 136.272 102.852C136.273 102.827 136.28 102.802 136.292 102.778C142.02 91.0325 154.706 88.1431 157.778 88.3623C157.829 88.3663 157.877 88.3903 157.911 88.4291C157.944 88.468 157.961 88.5185 157.958 88.5698C157.953 88.6214 157.928 88.669 157.889 88.7027C157.849 88.7363 157.798 88.7532 157.747 88.7499C154.738 88.5228 142.282 91.3849 136.644 102.951C136.625 102.979 136.599 103.003 136.568 103.019C136.537 103.034 136.502 103.042 136.468 103.041V103.041Z" fill="white"/>
<path d="M135.273 104.54C135.273 104.729 135.323 104.915 135.419 105.078C135.514 105.241 135.651 105.376 135.815 105.469C135.98 105.562 136.166 105.61 136.355 105.608C136.544 105.605 136.729 105.553 136.891 105.456C140.48 103.37 145.714 102.215 154.185 104.626C158.691 105.907 160.908 105.049 161.857 103.217C162.914 101.181 160.681 99.2116 158.134 98.2837C149.464 95.1162 141.64 97.2774 135.273 103.597V104.54Z" fill="#DE6300"/>
<path d="M135.77 104.709C135.743 104.709 135.715 104.704 135.689 104.693C135.664 104.682 135.641 104.666 135.622 104.646C135.585 104.609 135.565 104.559 135.565 104.507C135.565 104.455 135.585 104.405 135.622 104.368C143.109 97.6807 154.706 98.9845 159.094 101.592C159.139 101.618 159.171 101.661 159.184 101.711C159.198 101.761 159.191 101.814 159.165 101.858C159.138 101.903 159.095 101.935 159.044 101.949C158.994 101.962 158.94 101.955 158.895 101.929C154.585 99.3721 143.223 98.0996 135.884 104.669C135.851 104.693 135.811 104.707 135.77 104.709V104.709Z" fill="white"/>
<path d="M51.5015 120.131C48.2103 115.112 42.5605 111.423 36.0174 108.867C29.5605 106.345 28.8514 102.105 33.4276 101.298C38.6151 100.386 44.5352 103.898 48.1085 108.229C54.3303 115.777 54.6006 121.02 54.6006 121.02L51.5015 120.131Z" fill="#DE6300"/>
<path opacity="0.15" d="M51.5015 120.131C48.2103 115.112 42.5605 111.423 36.0174 108.867C29.5605 106.345 28.8514 102.105 33.4276 101.298C38.6151 100.386 44.5352 103.898 48.1085 108.229C54.3303 115.777 54.6006 121.02 54.6006 121.02L51.5015 120.131Z" fill="black"/>
<path d="M53.4918 120.1C53.5203 120.105 53.5496 120.105 53.578 120.1C53.6269 120.082 53.667 120.046 53.6897 119.999C53.7124 119.952 53.7159 119.898 53.6995 119.849C49.3897 107.512 37.1497 103.146 34.0623 103.013C34.011 103.011 33.9609 103.029 33.9228 103.064C33.8847 103.098 33.8616 103.146 33.8586 103.197C33.8574 103.249 33.8763 103.3 33.9113 103.338C33.9463 103.377 33.9947 103.401 34.0467 103.405C37.0635 103.53 49.0919 107.841 53.3273 119.99C53.3425 120.021 53.3658 120.048 53.3947 120.067C53.4236 120.086 53.4571 120.098 53.4918 120.1Z" fill="white"/>
<path d="M54.6281 120.781C54.5973 121.059 54.4954 121.325 54.332 121.552C54.1686 121.78 53.9494 121.961 53.6954 122.079C53.4414 122.197 53.1612 122.248 52.882 122.226C52.6027 122.204 52.3337 122.111 52.1009 121.955C48.7785 119.732 43.83 118.287 35.7236 119.606C31.1003 120.346 29.0003 119.215 28.2793 117.3C27.4722 115.155 29.9249 113.467 32.5617 112.845C41.5458 110.723 49.0606 113.792 54.6359 120.812L54.6281 120.781Z" fill="#DE6300"/>
<path d="M54.009 121.834C54.0364 121.838 54.0642 121.836 54.0906 121.828C54.1171 121.82 54.1414 121.806 54.1618 121.787C54.198 121.75 54.2182 121.7 54.2182 121.648C54.2182 121.596 54.198 121.546 54.1618 121.509C47.5012 113.988 35.845 113.913 31.1787 115.985C31.1309 116.006 31.0935 116.045 31.0747 116.094C31.056 116.143 31.0574 116.197 31.0787 116.245C31.1 116.293 31.1395 116.33 31.1883 116.349C31.2372 116.368 31.2915 116.366 31.3393 116.345C35.9116 114.313 47.3523 114.387 53.868 121.768C53.885 121.789 53.9065 121.805 53.9309 121.817C53.9553 121.828 53.982 121.834 54.009 121.834V121.834Z" fill="white"/>
<path opacity="0.15" d="M124.588 30.6745L124.526 30.6431L109.59 22.053L109.504 22.0099C102.526 18.4862 93.2167 19.5472 83.2023 26.0153C63.0871 39.014 47.7559 68.9346 48.9665 92.8453C49.566 104.76 54.1658 112.931 61.1124 116.525L61.1751 116.556L76.1145 125.15L76.189 125.189C83.1709 128.713 92.488 127.668 102.506 121.192C122.625 108.193 137.953 78.2726 136.746 54.3619C136.135 42.4399 131.539 34.2687 124.588 30.6745Z" fill="black"/>
<path opacity="0.15" d="M75.5934 124.872L61.1673 116.549L61.1007 116.505C54.154 112.903 49.5581 104.732 48.9548 92.8336C48.4141 82.1684 51.1724 70.3168 56.16 59.3109L56.2619 59.0682L71.0995 67.9011C66.1001 78.9069 63.3535 90.7585 63.8942 101.424C64.4623 113.087 68.8897 121.161 75.5934 124.872Z" fill="black"/>
<path opacity="0.15" d="M102.499 121.184C122.618 108.185 137.945 78.2647 136.738 54.3541C135.531 30.4434 118.245 21.6027 98.1299 34.6015C78.0148 47.6002 62.6836 77.5208 63.8903 101.428C65.0971 125.334 82.3834 134.183 102.499 121.184Z" fill="black"/>
<path d="M119.534 28.8186L94.3255 80.7236L88.899 74.8506C87.281 73.1672 85.0668 72.185 82.7321 72.1151C80.3973 72.0451 78.1283 72.893 76.4122 74.4766C74.6962 76.0602 73.6701 78.2531 73.5544 80.5844C73.4387 82.9157 74.2425 85.1994 75.7932 86.945L90.0862 102.422C91.6598 104.129 93.8398 105.152 96.1591 105.272C96.3237 105.272 96.4883 105.272 96.6528 105.272C97.0855 105.272 97.5176 105.241 97.9458 105.178C99.3826 104.967 100.746 104.407 101.917 103.549C103.088 102.69 104.031 101.559 104.665 100.253L133.576 40.7407C130.626 34.1317 125.685 30.0363 119.534 28.8186Z" fill="#E0DFE0"/>
<path d="M140.01 11.7245C139.853 11.6344 139.692 11.5483 139.528 11.47C137.68 10.5752 135.552 10.4494 133.612 11.1203C131.671 11.7912 130.076 13.2039 129.176 15.0486L97.0917 81.0838L95.2698 79.1261C94.7419 78.5517 94.1287 78.0618 93.4518 77.6736C92.4919 77.1254 88.4289 74.7723 87.7707 74.3926C86.1663 73.465 84.2823 73.1431 82.4606 73.4853C80.639 73.8276 79.0006 74.8112 77.8428 76.2576C76.685 77.7041 76.0847 79.5174 76.1507 81.3685C76.2168 83.2196 76.9449 84.9856 78.2029 86.3459L92.4997 101.819C93.034 102.402 93.6568 102.898 94.3451 103.287C95.2776 103.816 99.3289 106.165 99.991 106.549C101.049 107.162 102.237 107.515 103.458 107.579C103.982 107.609 104.507 107.585 105.026 107.508C106.274 107.325 107.458 106.839 108.475 106.094C109.493 105.349 110.313 104.367 110.864 103.233L148.817 25.1108C149.671 23.3501 149.826 21.3321 149.253 19.4616C148.68 17.591 147.42 16.0062 145.726 15.0251L140.01 11.7245Z" fill="#DE6300"/>
<path opacity="0.15" d="M140.01 11.7245C139.853 11.6344 139.692 11.5483 139.528 11.47C137.68 10.5752 135.552 10.4494 133.612 11.1203C131.671 11.7912 130.076 13.2039 129.176 15.0486L97.0917 81.0838L95.2698 79.1261C94.7419 78.5517 94.1287 78.0618 93.4518 77.6736C92.4919 77.1254 88.4289 74.7723 87.7707 74.3926C86.1663 73.465 84.2823 73.1431 82.4606 73.4853C80.639 73.8276 79.0006 74.8112 77.8428 76.2576C76.685 77.7041 76.0847 79.5174 76.1507 81.3685C76.2168 83.2196 76.9449 84.9856 78.2029 86.3459L92.4997 101.819C93.034 102.402 93.6568 102.898 94.3451 103.287C95.2776 103.816 99.3289 106.165 99.991 106.549C101.049 107.162 102.237 107.515 103.458 107.579C103.982 107.609 104.507 107.585 105.026 107.508C106.274 107.325 107.458 106.839 108.475 106.094C109.493 105.349 110.313 104.367 110.864 103.233L148.817 25.1108C149.671 23.3501 149.826 21.3321 149.253 19.4616C148.68 17.591 147.42 16.0062 145.726 15.0251L140.01 11.7245Z" fill="black"/>
<path opacity="0.15" d="M99.991 106.533C99.3288 106.142 95.2894 103.792 94.3412 103.272C93.6551 102.879 93.0329 102.384 92.4958 101.804L78.2029 86.3303C77.5726 85.642 77.071 84.8464 76.7218 83.9811L82.4069 87.2582C82.7545 88.1251 83.2578 88.9213 83.8918 89.6074L98.1887 105.081C98.7138 105.652 99.3212 106.141 99.991 106.533V106.533Z" fill="black"/>
<path opacity="0.15" d="M136.66 15.9491C135.912 16.6179 135.302 17.4266 134.865 18.3296L101.868 86.252L97.0956 81.0838L129.176 15.0486C129.614 14.1448 130.225 13.3359 130.975 12.6681L136.66 15.9491Z" fill="black"/>
<path d="M145.217 14.7511C143.369 13.8573 141.241 13.7321 139.301 14.4029C137.361 15.0737 135.766 16.4857 134.865 18.3297L101.868 86.252L95.2698 79.1106C93.8516 77.7089 91.947 76.908 89.9527 76.8745C87.9583 76.8411 86.0279 77.5778 84.5635 78.9312C83.0991 80.2845 82.2136 82.1503 82.0914 84.1398C81.9692 86.1293 82.6197 88.0892 83.9075 89.6114L98.2044 105.088C99.06 106.013 100.129 106.716 101.317 107.135C102.506 107.553 103.779 107.676 105.026 107.491C106.273 107.307 107.456 106.821 108.473 106.076C109.49 105.332 110.309 104.35 110.86 103.217L148.814 25.0953C149.707 23.2465 149.83 21.1192 149.156 19.18C148.481 17.2408 147.065 15.648 145.217 14.7511V14.7511Z" fill="#DE6300"/>
<path opacity="0.5" d="M119.495 9.98226L117.297 10.6439L115.71 5.34656L117.9 4.68488L119.495 9.98226Z" fill="#DE6300"/>
<path opacity="0.5" d="M126.367 5.28C126.385 5.49488 126.335 5.71002 126.223 5.89438C126.111 6.07874 125.943 6.22281 125.744 6.30581C125.887 6.46773 125.992 6.6588 126.054 6.86569C126.179 7.25722 125.846 7.82494 125.184 8.04028L120.157 9.55158L118.68 4.63007C118.68 4.63007 119.534 2.45708 119.573 2.1282C119.612 1.79931 119.115 0.593406 119.044 0.366319C118.974 0.139233 119.789 -0.158329 120.431 0.10008C120.588 0.164033 120.728 0.261611 120.843 0.385894C121.075 0.63083 121.269 0.909325 121.419 1.21202C121.632 1.64226 121.737 2.11805 121.724 2.59803L124.761 1.68577C124.971 1.60981 125.201 1.60981 125.411 1.68577C125.528 1.73324 125.634 1.80539 125.72 1.89729C125.807 1.98918 125.872 2.09866 125.913 2.21825C125.96 2.37982 125.961 2.55144 125.915 2.71346C125.869 2.87549 125.779 3.02138 125.654 3.13443C125.835 3.1213 126.016 3.16935 126.166 3.27087C126.317 3.37239 126.429 3.52151 126.485 3.69431C126.532 3.89671 126.506 4.10911 126.413 4.29493C126.32 4.48075 126.165 4.62835 125.975 4.71229C126.173 4.84535 126.313 5.04814 126.367 5.28V5.28Z" fill="#DE6300"/>
<path opacity="0.5" d="M165.156 64.9098L162.339 64.2325L163.98 57.4434L166.793 58.1168L165.156 64.9098Z" fill="#DE6300"/>
<path opacity="0.5" d="M175.644 64.1463C175.527 64.3922 175.335 64.5948 175.096 64.7249C174.857 64.855 174.582 64.906 174.312 64.8706C174.363 65.1378 174.356 65.4127 174.292 65.6771C174.167 66.2057 173.45 66.5933 172.604 66.3858L166.155 64.8197L167.675 58.5122C167.675 58.5122 169.99 56.6837 170.245 56.3509C170.5 56.0181 170.719 54.3933 170.79 54.0918C170.86 53.7903 171.938 53.9939 172.475 54.6869C172.605 54.8553 172.696 55.0506 172.741 55.2586C172.836 55.6729 172.87 56.0989 172.843 56.5232C172.8 57.1293 172.612 57.7162 172.294 58.2342L176.189 59.1738C176.465 59.2324 176.712 59.3862 176.886 59.6084C176.983 59.7353 177.051 59.8811 177.087 60.0364C177.123 60.1916 177.125 60.3527 177.094 60.509C177.042 60.7148 176.933 60.9019 176.78 61.0493C176.627 61.1966 176.436 61.2983 176.228 61.3429C176.434 61.4438 176.6 61.611 176.7 61.8176C176.799 62.0243 176.826 62.2584 176.777 62.4823C176.697 62.7297 176.535 62.9425 176.318 63.085C176.1 63.2275 175.84 63.2912 175.581 63.2653C175.716 63.5396 175.739 63.8556 175.644 64.1463V64.1463Z" fill="#DE6300"/>
<path opacity="0.5" d="M22.8607 60.8456L25.9364 61.7735L28.1618 54.358L25.0901 53.4301L22.8607 60.8456Z" fill="#DE6300"/>
<path opacity="0.5" d="M13.2498 54.2602C13.2241 54.5614 13.2949 54.8629 13.452 55.1212C13.6091 55.3795 13.8442 55.5812 14.1235 55.6972C13.926 55.9248 13.7791 56.1917 13.6925 56.4802C13.5162 57.0558 13.9864 57.8271 14.9071 58.1011L21.9596 60.2193L24.0204 53.3167C24.0204 53.3167 22.8254 50.2706 22.7667 49.7929C22.7079 49.3152 23.4131 47.6473 23.5072 47.3263C23.5855 47.0679 22.465 46.5941 21.5482 46.9582C21.3302 47.0436 21.1345 47.1775 20.9761 47.3498C20.6506 47.6993 20.3786 48.0952 20.169 48.5243C19.8688 49.1324 19.7209 49.8042 19.738 50.482L15.5066 49.2056C15.2082 49.1075 14.8846 49.1186 14.5937 49.2369C14.4008 49.3128 14.231 49.4373 14.1006 49.5983C13.9703 49.7593 13.8839 49.9513 13.85 50.1556C13.816 50.3599 13.8357 50.5694 13.907 50.7639C13.9782 50.9583 14.0987 51.131 14.2567 51.265C14.001 51.2431 13.7454 51.3087 13.5318 51.4509C13.3183 51.5932 13.1594 51.8038 13.0813 52.0481C13.0162 52.33 13.0504 52.6258 13.1782 52.8854C13.3059 53.1451 13.5194 53.3527 13.7826 53.4733C13.5142 53.6612 13.3245 53.9413 13.2498 54.2602Z" fill="#DE6300"/>
</svg>
