<svg width="67" height="67" viewBox="0 0 67 67" fill="none" xmlns="http://www.w3.org/2000/svg">
<circle cx="33.5" cy="33.5" r="32.5" fill="#EBEBEB" stroke="#F15E22" stroke-width="2"/>
<circle cx="26.6391" cy="26.4885" r="14.9972" transform="rotate(-76.81 26.6391 26.4885)" fill="#263238"/>
<path d="M49.5088 20.7931C51.2203 20.6007 52.9254 21.2043 54.1347 22.4307C56.1331 24.4753 55.0136 30.8776 52.5249 37.1503L47.9453 37.6777L49.5088 20.7931Z" fill="#263238"/>
<path d="M46.6125 37.6779C47.5377 38.2237 48.8422 36.4659 49.9709 35.2816C51.0996 34.0974 54.8004 32.5061 56.6415 36.3641C58.4826 40.2221 55.0132 45.5512 52.1081 46.4671C47.0936 48.0399 46.335 44.8203 46.335 44.8203L45.9556 62.9076C41.635 67.737 26.8599 66.6083 29.6447 62.4265V56.8754C29.6447 56.8754 25.102 57.5693 22.8908 57.227C19.1901 56.6533 16.8772 53.7483 15.7577 49.7515C13.9628 43.34 13.2782 38.1682 14.8325 25.558C16.5071 11.7358 32.5775 11.597 41.2557 17.0556C49.9339 22.5141 46.6125 37.6779 46.6125 37.6779Z" fill="#FFC0C0"/>
<path fill-rule="evenodd" clip-rule="evenodd" d="M33.0589 40.8419H33.836H33.8453C36.6709 40.8419 38.9615 38.5512 38.9615 35.7256C38.9615 32.9 36.6709 30.6093 33.8453 30.6093H33.0589C30.2333 30.6093 27.9426 32.9 27.9426 35.7256C27.9426 38.5512 30.2333 40.8419 33.0589 40.8419ZM28.8032 35.7256C28.8032 33.3752 30.7086 31.4698 33.059 31.4698H33.8454C36.1958 31.4698 38.1012 33.3752 38.1012 35.7256C38.1012 38.0761 36.1958 39.9815 33.8454 39.9815H33.059C30.7086 39.9815 28.8032 38.0761 28.8032 35.7256Z" fill="#263238"/>
<path fill-rule="evenodd" clip-rule="evenodd" d="M17.4695 40.8419H18.2559C21.0815 40.8419 23.3721 38.5512 23.3721 35.7256C23.3721 32.9 21.0815 30.6093 18.2559 30.6093H17.4695C14.6438 30.6093 12.3532 32.9 12.3532 35.7256C12.3532 38.5512 14.6438 40.8419 17.4695 40.8419ZM13.2134 35.7256C13.2134 33.3752 15.1188 31.4698 17.4692 31.4698H18.2557C20.6061 31.4698 22.5115 33.3752 22.5115 35.7256C22.5115 38.0761 20.6061 39.9815 18.2557 39.9815H17.4692C15.1188 39.9815 13.2134 38.0761 13.2134 35.7256Z" fill="#263238"/>
<path d="M27.999 34.7173C27.3661 33.8576 26.3649 33.3467 25.2974 33.3387C24.4079 33.2492 23.5297 33.5936 22.9382 34.2639L22.2536 33.7458C23.0142 32.8463 24.1729 32.3849 25.3437 32.5153C26.6971 32.5287 27.9611 33.1935 28.7391 34.3009L27.999 34.7173Z" fill="#263238"/>
<rect x="38.4811" y="34.6803" width="10.8801" height="0.860419" fill="#263238"/>
<path d="M46.6125 39.2228C47.0751 39.2228 48.8237 36.3178 49.9709 35.2816C51.553 33.8383 49.5083 20.7932 49.5083 20.7932C49.5083 20.7932 51.0349 17.5458 47.9818 14.1967C45.8168 11.8097 42.1901 11.5414 36.0007 10.57C32.7533 10.0611 27.8313 9.14517 24.5839 8.5438C20.7167 7.82216 17.5063 7.06351 14.777 9.46898C12.5815 11.3721 11.8218 14.4514 12.8804 17.1572C13.6639 18.8041 15.0575 20.0815 16.7661 20.7192C16.7661 20.7192 18.45 22.218 24.3249 22.9304C30.1998 23.6428 39.3498 22.8009 40.5988 22.6251C42.3012 22.3938 42.662 24.0406 43.5872 28.5555C44.3921 32.4875 45.0859 39.1951 46.6125 39.2228Z" fill="#263238"/>
<path d="M49.4997 21.848L55.0508 18.8597C54.6916 18.1057 54.04 17.5311 53.2469 17.2691C52.4539 17.0071 51.5882 17.0803 50.8505 17.4719C49.3097 18.3405 48.7165 20.262 49.4997 21.848V21.848Z" fill="#263238"/>
<path d="M29.6547 56.9215C29.6547 56.9215 37.8888 55.2654 40.7569 53.7389C42.4491 52.8551 43.8356 51.4815 44.7351 49.7976C44.2997 51.475 43.5321 53.0481 42.4777 54.4235C40.3683 57.1158 29.6454 59.0957 29.6454 59.0957L29.6547 56.9215Z" fill="#F9A9A9"/>
<path d="M31.6338 35.6239C31.6693 36.5305 32.4276 37.2397 33.3345 37.2146C34.2414 37.1895 34.9593 36.4393 34.9445 35.5322C34.9298 34.6251 34.1879 33.8987 33.2807 33.9031C32.834 33.9128 32.4096 34.0996 32.1007 34.4223C31.7919 34.7451 31.6239 35.1773 31.6338 35.6239V35.6239Z" fill="#263238"/>
<path d="M34.2803 28.7961L37.8145 30.739C38.3086 29.7409 37.9496 28.5306 36.9911 27.9635C36.5231 27.7047 35.9701 27.6473 35.4589 27.8043C34.9477 27.9613 34.5223 28.3193 34.2803 28.7961H34.2803Z" fill="#263238"/>
<path d="M30.404 47.0128L26.6385 48.4283C26.8023 48.9392 27.1673 49.3611 27.6492 49.5969C28.1311 49.8326 28.6883 49.8616 29.1921 49.6773C30.2468 49.2596 30.7823 48.0824 30.404 47.0128Z" fill="#F28F8F"/>
<path d="M16.4983 30.2392L19.7179 27.7689C19.4151 27.3332 18.9473 27.0402 18.4231 26.9581C17.8989 26.876 17.3639 27.0118 16.9424 27.3341C16.042 28.0283 15.8465 29.3077 16.4983 30.2392V30.2392Z" fill="#263238"/>
<path d="M17.9136 35.1519C17.9491 36.0584 18.7073 36.7676 19.6142 36.7425C20.5211 36.7174 21.239 35.9673 21.2242 35.0602C21.2095 34.153 20.4676 33.4266 19.5604 33.431C19.1138 33.4407 18.6893 33.6275 18.3805 33.9503C18.0716 34.273 17.9036 34.7052 17.9136 35.1519V35.1519Z" fill="#263238"/>
<path d="M26.0646 33.8289L25.8796 43.8301L19.9677 42.5256L26.0646 33.8289V33.8289Z" fill="#F9A9A9"/>
</svg>
