<svg width="31" height="27" viewBox="0 0 31 27" fill="none" xmlns="http://www.w3.org/2000/svg">
<path d="M26.6353 25.9143H4.28376C3.81395 25.9146 3.34955 25.8121 2.92197 25.614C2.49438 25.4158 2.11358 25.1264 1.8053 24.7655C1.49702 24.4045 1.26846 23.9804 1.13506 23.5217C1.00166 23.0631 0.966544 22.5806 1.03207 22.107L3.56088 3.87435C3.67145 3.0766 4.0614 2.3464 4.65892 1.81822C5.25643 1.29004 6.02127 0.999465 6.81256 1H24.1098C24.9011 0.999465 25.666 1.29004 26.2635 1.81822C26.861 2.3464 27.2509 3.0766 27.3615 3.87435L29.8862 22.107C29.9518 22.5806 29.9168 23.063 29.7835 23.5217C29.6502 23.9803 29.4217 24.4045 29.1135 24.7654C28.8053 25.1264 28.4246 25.4158 27.997 25.614C27.5695 25.8122 27.1051 25.9146 26.6353 25.9143V25.9143Z" stroke="#231F20" stroke-width="1.5" stroke-miterlimit="10"/>
</svg>
