<svg width="39" height="35" viewBox="0 0 39 35" fill="none" xmlns="http://www.w3.org/2000/svg">
<path d="M38.207 20.8501C38.2412 20.9645 38.2515 21.0849 38.2376 21.2037C38.2236 21.3224 38.1855 21.4369 38.1258 21.5399C38.066 21.643 37.9859 21.7323 37.8904 21.8023C37.795 21.8723 37.6863 21.9215 37.5712 21.9466C35.144 22.4745 28.2585 23.8826 22.2843 24.2471C21.3715 24.3016 20.481 24.3333 19.6308 24.3333C18.6971 24.3333 17.7352 24.3001 16.7643 24.2426C10.5697 23.875 3.99102 22.479 1.66508 21.9497C1.55215 21.9241 1.44552 21.8753 1.35178 21.8064C1.25804 21.7375 1.17912 21.6499 1.11987 21.549C1.06063 21.448 1.02233 21.3358 1.00725 21.2193C0.992172 21.1028 1.00067 20.9843 1.03222 20.8713L3.92102 10.4472C4.03019 10.0517 4.26411 9.70345 4.58689 9.45592C4.90966 9.20839 5.30347 9.07526 5.70791 9.07694H33.3467C33.7439 9.07693 34.1305 9.2068 34.4494 9.44732C34.7682 9.68785 35.0024 10.0263 35.1172 10.4125L38.207 20.8501Z" stroke="#F15E22" stroke-miterlimit="10" stroke-linecap="round"/>
<path d="M22.5385 24.3377V29.5H16.7051V24.3333C17.7331 24.3883 18.7547 24.4201 19.74 24.4201C20.6355 24.4201 21.5783 24.3955 22.5385 24.3377Z" stroke="#F15E22" stroke-miterlimit="10" stroke-linecap="round"/>
<path d="M13.1263 30H26.1174C26.5963 30 27.0556 30.1956 27.3942 30.5437C27.7329 30.8918 27.9231 31.364 27.9231 31.8563V33.5897H11.3206V31.8563C11.3206 31.6125 11.3673 31.3711 11.458 31.1459C11.5488 30.9207 11.6818 30.7161 11.8494 30.5437C12.0171 30.3713 12.2162 30.2346 12.4353 30.1413C12.6544 30.048 12.8892 30 13.1263 30V30Z" stroke="#F15E22" stroke-miterlimit="10" stroke-linecap="round"/>
<path d="M29.718 9.07692H16.1319L13.1285 1.27306C13.117 1.24258 13.1129 1.20975 13.1168 1.17738C13.1207 1.145 13.1324 1.11406 13.1508 1.0872C13.1693 1.06035 13.194 1.03838 13.2228 1.02319C13.2516 1.008 13.2836 1.00004 13.3162 1H25.3774C25.7385 0.999978 26.0912 1.10961 26.3889 1.31445C26.6866 1.51929 26.9154 1.80971 27.0451 2.14745L29.718 9.07692Z" stroke="#F15E22" stroke-miterlimit="10" stroke-linecap="round"/>
<path d="M16.1563 9.07692H10.0759C10.0594 9.07679 10.0431 9.07266 10.0285 9.06489C10.0139 9.05712 10.0015 9.04594 9.99215 9.03231C9.98284 9.01869 9.97697 9.00301 9.97506 8.98663C9.97314 8.97025 9.97521 8.95365 9.98114 8.93825L13.0206 1.06609C13.0277 1.04672 13.0406 1.02998 13.0575 1.01816C13.0745 1.00634 13.0947 1 13.1154 1C13.1361 1 13.1563 1.00634 13.1732 1.01816C13.1902 1.02998 13.2031 1.04672 13.2102 1.06609L16.2496 8.93825C16.2555 8.95353 16.2576 8.97 16.2558 8.98626C16.2539 9.00252 16.2482 9.01811 16.2391 9.0317C16.2299 9.04529 16.2176 9.0565 16.2032 9.06437C16.1888 9.07224 16.1728 9.07655 16.1563 9.07692V9.07692Z" stroke="#F15E22" stroke-miterlimit="10" stroke-linecap="round"/>
</svg>
